# xmcd CD database file
#
# Track frame offsets:
#	150
#	13034
#	35899
#	50004
#	71028
#	87885
#	117763
#	136116
#	152247
#	172963
#	189073
#	210903
#	222265
#	234860
#
# Disc length: 3403 seconds
#
# Revision: 0
# Processed by: cddbd v1.4PL0 Copyright (c) Steve Scherf et al.
# Submitted via: CDex 1.51
#
DISCID=b50d490e
DTITLE=Alexander - Gardens for Humanity
DYEAR=2001
DGENRE=New Age
TTITLE0=Heartfelt
TTITLE1=There I Must Go
TTITLE2=A Distant Sea
TTITLE3=See Her Dance
TTITLE4=Voice Dance
TTITLE5=Road From Tibet
TTITLE6=Moonlit Revelation
TTITLE7=Indian Marketplace:Evening
TTITLE8=Spanish Plaza
TTITLE9=Music In The Water
TTITLE10=Deeper Mysteries
TTITLE11=A Silent Place
TTITLE12=Return To The Blue Planet
TTITLE13=Arizona Mountains
EXTD=YEAR: 2001
EXTT0=
EXTT1=
EXTT2=
EXTT3=
EXTT4=
EXTT5=
EXTT6=
EXTT7=
EXTT8=
EXTT9=
EXTT10=
EXTT11=
EXTT12=
EXTT13=
PLAYORDER=
